# xmcd CD database file
#
# Track frame offsets:
#	150
#	25472
#	43092
#	96327
#
# Disc length: 1560 seconds
#
# Revision: 0
# Processed by: cddbd v1.5PL3 Copyright (c) Steve Scherf et al.
# Submitted via: CDex 1.50
#
DISCID=30061604
DTITLE=Hasan Cihat Örter - Ýnspration
DYEAR=1997
DGENRE=New Age
TTITLE0=INSPRATION (Album Version)
TTITLE1=INSPRATION (Southern Cross Remix)
TTITLE2=INSPRATION (Southern Cross Dream Mix)
TTITLE3=WINGS OVER THE SEA (Album Version)
EXTD=YEAR: 1997
EXTT0=
EXTT1=
EXTT2=
EXTT3=
PLAYORDER=
